# xmcd CD database file
#
# Track frame offsets:
#	150
#	32340
#	46309
#	59202
#	73759
#	90221
#	106536
#	118900
#	138336
#	154530
#	171767
#	190019
#
# Disc length: 2764 seconds
#
# Revision: 0
# Processed by: cddbd v1.5.1PL0 Copyright (c) Steve Scherf et al.
# Submitted via: CDex 1.51
#
DISCID=960aca0c
DTITLE=THE BEATLES - LET IT BE
DYEAR=1900
DGENRE=Pop
TTITLE0=HEY JUDE
TTITLE1=HERE COMES THE SUN
TTITLE2=OCTOPUS'S GARDEN
TTITLE3=GET BACK
TTITLE4=THE LONG AND WINDING ROAD
TTITLE5=TOW OF US
TTITLE6=BACK IN THE U.S.S.R.
TTITLE7=COME TOGETHER
TTITLE8=DON'T LET ME DOWN
TTITLE9=ALL YOU NEED IS LOVE
TTITLE10=YOU NEVER GIVE ME YOUR MONEY
TTITLE11=LET IT BE
EXTD=
EXTT0=
EXTT1=
EXTT2=
EXTT3=
EXTT4=
EXTT5=
EXTT6=
EXTT7=
EXTT8=
EXTT9=
EXTT10=
EXTT11=
PLAYORDER=
